<svg width="1605" height="1416" viewBox="0 0 1605 1416" fill="none" xmlns="http://www.w3.org/2000/svg">
<path d="M561.835 951.274C601.841 926.902 634.904 892.649 657.846 851.807C680.788 810.965 692.839 764.908 692.839 718.063C692.839 671.219 680.788 625.162 657.846 584.32C634.904 543.478 601.841 509.225 561.835 484.853M1097.07 484.853C1057.07 509.225 1024 543.478 1001.06 584.32C978.118 625.162 966.067 671.219 966.067 718.063C966.067 764.908 978.118 810.965 1001.06 851.807C1024 892.649 1057.07 926.902 1097.07 951.274" stroke="black" stroke-width="64" stroke-linecap="round" stroke-linejoin="round"/>
<path d="M563.472 952.715C622.526 1012.08 724.105 1060.96 807.218 1069.19C890.332 1077.41 973.711 1056.41 1043.15 1009.76C1112.58 963.105 1163.78 893.69 1188.01 813.341C1212.24 732.992 1208 646.683 1176.03 569.121C1144.05 491.559 1086.31 427.544 1012.65 387.985C938.982 348.427 853.952 335.773 772.047 352.179C690.141 368.586 616.429 413.038 563.472 477.96C510.515 542.882 481.591 624.257 481.627 708.217V788.695" stroke="black" stroke-width="64" stroke-linecap="round" stroke-linejoin="round"/>
<path d="M401.411 708.09L481.623 788.729L561.835 708.09" stroke="black" stroke-width="64" stroke-linecap="round" stroke-linejoin="round"/>
</svg>
